<?xml version="1.0" encoding="UTF-8" standalone="no"?>
<!-- Created with Inkscape (http://www.inkscape.org/) -->

<svg
   width="5.1594343mm"
   height="5.1594248mm"
   viewBox="0 0 5.1594343 5.1594248"
   version="1.1"
   id="svg5"
   xml:space="preserve"
   inkscape:version="1.2.2 (732a01da63, 2022-12-09)"
   sodipodi:docname="new.svg"
   xmlns:inkscape="http://www.inkscape.org/namespaces/inkscape"
   xmlns:sodipodi="http://sodipodi.sourceforge.net/DTD/sodipodi-0.dtd"
   xmlns="http://www.w3.org/2000/svg"
   xmlns:svg="http://www.w3.org/2000/svg"><sodipodi:namedview
     id="namedview7"
     pagecolor="#ffffff"
     bordercolor="#000000"
     borderopacity="0.25"
     inkscape:showpageshadow="2"
     inkscape:pageopacity="0.0"
     inkscape:pagecheckerboard="0"
     inkscape:deskcolor="#d1d1d1"
     inkscape:document-units="mm"
     showgrid="false"
     inkscape:zoom="23.860606"
     inkscape:cx="-2.3679197"
     inkscape:cy="10.267971"
     inkscape:window-width="1920"
     inkscape:window-height="1017"
     inkscape:window-x="-8"
     inkscape:window-y="-8"
     inkscape:window-maximized="1"
     inkscape:current-layer="layer1" /><defs
     id="defs2" /><g
     inkscape:label="Layer 1"
     inkscape:groupmode="layer"
     id="layer1"
     transform="translate(-96.775121,-131.19449)"><g
       style="fill:none;stroke-width:1.00157481"
       id="g1058"
       transform="matrix(0.26458333,0,0,0.26458333,96.70902,131.12834)"><path
         style="color:#000000;fill:#7e74f1;stroke-linecap:round;stroke-linejoin:round;-inkscape-stroke:none"
         d="M 2.8085938,0.5 C 1.4770972,0.50124844 0.39265671,1.6708395 0.50976562,3.0078125 0.52351097,12.202139 7.7331893,19.476439 16.988281,19.490234 18.330618,19.607449 19.505413,18.518583 19.5,17.183594 V 14.488281 C 19.514051,13.92239 19.319697,13.371142 18.953125,12.939453 18.39971,12.28758 17.446858,11.925586 16.462891,11.669922 15.478924,11.414258 14.501872,11.291941 13.78125,11.445313 12.834553,11.64686 12.263858,12.349157 11.779297,12.894531 9.8544085,11.729871 8.2490204,10.125862 7.0820312,8.2050781 7.6281555,7.7220882 8.331398,7.1533966 8.5332031,6.2089844 8.686825,5.4901045 8.5651553,4.5184255 8.3105469,3.5390625 8.0559385,2.5596995 7.6924967,1.6107798 7.046875,1.0566406 6.6217486,0.6917542 6.0779519,0.49449221 5.5175781,0.5 Z m 10.2460942,0.001953 a 0.50078738,0.50078738 0 0 0 -0.552735,0.44335938 0.50078738,0.50078738 0 0 0 0.44336,0.5527344 c 1.405693,0.1561636 2.679806,0.8353868 3.701171,1.8554687 1.020547,1.0192642 1.697377,2.2964521 1.855469,3.703125 a 0.50078738,0.50078738 0 0 0 0.554688,0.4414063 0.50078738,0.50078738 0 0 0 0.441406,-0.5546875 C 19.31194,5.2874154 18.513567,3.805078 17.353516,2.6464844 16.194283,1.4887085 14.711991,0.68606913 13.054688,0.50195312 Z M 2.8085938,1.5 h 2.7148437 a 0.50083746,0.50083746 0 0 0 0.00391,0 C 5.8454091,1.4968738 6.1535983,1.6096133 6.3945312,1.8164062 6.6957186,2.0749163 7.1118301,2.9139505 7.3398437,3.7910156 7.5678574,4.6680807 7.6334323,5.6223709 7.5527344,6 7.4270866,6.5880094 6.6962787,7.1526314 6.0566406,7.7910156 A 0.50083746,0.50083746 0 0 0 5.9746094,8.3925781 C 7.3076437,10.732315 9.2496851,12.669677 11.59375,14 a 0.50083746,0.50083746 0 0 0 0.599609,-0.08203 c 0.639585,-0.638385 1.206294,-1.366456 1.796875,-1.492188 0.379777,-0.08083 1.339222,-0.01614 2.220703,0.212891 0.881482,0.229035 1.722532,0.647692 1.978516,0.949219 0.207628,0.24451 0.316542,0.556845 0.308594,0.876953 a 0.50083746,0.50083746 0 0 0 0,0.01172 v 2.708984 a 0.50083746,0.50083746 0 0 0 0,0.002 c 0.003,0.734597 -0.679296,1.374023 -1.425781,1.306641 a 0.50083746,0.50083746 0 0 0 -0.04687,-0.002 C 8.2604739,18.499082 1.5009482,11.673686 1.5078125,2.96875 a 0.50083746,0.50083746 0 0 0 -0.00195,-0.044922 C 1.4387863,2.1831009 2.0732476,1.5006895 2.8085938,1.5 Z m 9.7871092,2.5078125 a 0.50078738,0.50078738 0 0 0 -0.58789,0.3964844 0.50078738,0.50078738 0 0 0 0.396484,0.5878906 c 0.659116,0.1285867 1.301453,0.4206108 1.742187,0.8613281 0.440712,0.4406952 0.732761,1.0831162 0.861329,1.7421875 a 0.50078738,0.50078738 0 0 0 0.58789,0.3964844 0.50078738,0.50078738 0 0 0 0.396485,-0.5878906 C 15.833155,6.5890496 15.475003,5.7679482 14.853516,5.1464844 14.232051,4.5250428 13.410985,4.1668655 12.595703,4.0078125 Z"
         id="path1049" /></g></g></svg>
