<?xml version="1.0" encoding="utf-8"?><svg viewBox="0 0 199 210" xmlns="http://www.w3.org/2000/svg" xmlns:xlink="http://www.w3.org/1999/xlink"><style>:root>svg{display:none}:root>svg:target{display:block}</style><svg fill="none" viewBox="0 0 18 18" id="Icon" xmlns="http://www.w3.org/2000/svg"><path fill-rule="evenodd" clip-rule="evenodd" d="M10.088.252C9.437-.08 8.555-.085 7.898.246 5.605 1.737 3.18 3.159 1.102 4.585c-.309.25-.528.612-.525 1.04.004.424.228.782.535 1.028 2.068 1.246 4.493 2.667 6.736 4.3.65.332 1.533.337 2.19.006 2.357-1.639 3.327-2.113 6.795-4.34.31-.249.529-.612.525-1.039-.004-.425-.227-.783-.535-1.028-2.003-1.393-4.428-2.815-6.735-4.3ZM8.566 1.509c.233-.117.615-.116.849.003 2.01 1.173 3.95 2.595 6.409 4.078-1.974 1.36-3.914 2.782-6.455 4.106a1.058 1.058 0 0 1-.848-.004C6.202 8.372 4.15 6.951 2.11 5.614 4.15 4.107 5.606 3.16 8.567 1.51Z" fill="#7E74F1"/><path d="M17.89 9.103a.702.702 0 0 1-.232.98l-5.925 3.614c-.793.363-1.769.837-2.733.837-.964 0-1.94-.474-2.798-.837l-5.86-3.573a.701.701 0 0 1-.232-.98.738.738 0 0 1 1.003-.227l5.86 3.574c.527.322 1.277.621 2.027.62.75 0 1.435-.299 1.963-.62l5.924-3.615a.738.738 0 0 1 1.003.227Z" fill="#7E74F1"/><path d="M17.89 12.662a.701.701 0 0 1-.232.98l-5.13 3.13C10.94 17.531 10.217 18 8.967 18s-2.878-.943-3.56-1.227l-5.066-3.09a.701.701 0 0 1-.232-.98.738.738 0 0 1 1.003-.226l5.065 3.09c.75.457 1.753.863 2.79.863 1.036 0 2.039-.406 2.788-.864l5.131-3.13a.738.738 0 0 1 1.003.226Z" fill="#7E74F1"/></svg><svg fill="none" viewBox="0 0 199 210" id="lines" xmlns="http://www.w3.org/2000/svg"><path opacity=".7" d="M2.803 51.87 262.09-134.416M1.177 70.609l275.651-198.383M5.825 84.703l283.5-204.166M13.877 96.297l289.856-208.87M19.326 109.805l298.981-215.611M26.389 122.124 334-99.862M33.37 134.507 345.142-90.566M40.363 146.873 359.61-83.717M47.696 158.995 370.682-74.363M53.722 172.078 379.289-63.18M61.069 184.18 389.465-53.166M69.098 195.79 399.43-42.997M75.267 208.751 393.901-21.381" stroke="#fff" stroke-width="2" stroke-miterlimit="10" stroke-linecap="round" stroke-linejoin="round" stroke-dasharray="0.3 0.3"/></svg><svg fill="none" viewBox="0 0 19 16" id="shape" xmlns="http://www.w3.org/2000/svg"><path d="M1.5 15h16M1.5 1v11h16V1l-4 4-4-4-4 4-4-4Z" stroke="#7E74F1" stroke-width="1.5" stroke-linecap="round" stroke-linejoin="round"/></svg><svg fill="none" viewBox="0 0 21 20" id="shape-1" xmlns="http://www.w3.org/2000/svg"><path d="M19.5 10a9 9 0 0 1-9 9m9-9a9 9 0 0 0-9-9m9 9h-18m9 9a9 9 0 0 1-9-9m9 9s4-3 4-9-4-9-4-9m0 18s-4-3-4-9 4-9 4-9m-9 9a9 9 0 0 1 9-9" stroke="#7E74F1" stroke-width="1.5"/></svg></svg>